<?xml version="1.0" encoding="UTF-8" standalone="no"?>
<svg
   xmlns:dc="http://purl.org/dc/elements/1.1/"
   xmlns:cc="http://creativecommons.org/ns#"
   xmlns:rdf="http://www.w3.org/1999/02/22-rdf-syntax-ns#"
   xmlns:svg="http://www.w3.org/2000/svg"
   xmlns="http://www.w3.org/2000/svg"
   xmlns:sodipodi="http://sodipodi.sourceforge.net/DTD/sodipodi-0.dtd"
   xmlns:inkscape="http://www.inkscape.org/namespaces/inkscape"
   version="1.1"
   id="svg815"
   xml:space="preserve"
   width="866.66119"
   height="501.15433"
   viewBox="0 0 866.66118 501.15431"
   sodipodi:docname="DTS Digital Out.svg"
   inkscape:version="1.0.1 (3bc2e813f5, 2020-09-07)"><metadata
     id="metadata821"><rdf:RDF><cc:Work
         rdf:about=""><dc:format>image/svg+xml</dc:format><dc:type
           rdf:resource="http://purl.org/dc/dcmitype/StillImage" /><dc:title></dc:title></cc:Work></rdf:RDF></metadata><defs
     id="defs819"><clipPath
       clipPathUnits="userSpaceOnUse"
       id="clipPath889"><path
         d="M 0.06,27.781 H 27.93 V 26.343 H 0.06 Z"
         id="path887"
         inkscape:connector-curvature="0" /></clipPath><clipPath
       clipPathUnits="userSpaceOnUse"
       id="clipPath1061"><path
         d="m 493.891,84.188 h 28.06 v 16.729 h -28.06 z"
         id="path1059"
         inkscape:connector-curvature="0" /></clipPath><clipPath
       clipPathUnits="userSpaceOnUse"
       id="clipPath1089"><path
         d="m 536.194,84.188 h 28.063 v 16.706 h -28.063 z"
         id="path1087"
         inkscape:connector-curvature="0" /></clipPath></defs><sodipodi:namedview
     pagecolor="#ffffff"
     bordercolor="#666666"
     borderopacity="1"
     objecttolerance="10"
     gridtolerance="10"
     guidetolerance="10"
     inkscape:pageopacity="0"
     inkscape:pageshadow="2"
     inkscape:window-width="1600"
     inkscape:window-height="837"
     id="namedview817"
     showgrid="false"
     fit-margin-top="0"
     fit-margin-left="0"
     fit-margin-right="0"
     fit-margin-bottom="0"
     inkscape:zoom="0.48333333"
     inkscape:cx="556.00245"
     inkscape:cy="309.47521"
     inkscape:window-x="-8"
     inkscape:window-y="-8"
     inkscape:window-maximized="1"
     inkscape:current-layer="g823"
     inkscape:document-rotation="0"
     inkscape:pagecheckerboard="false" /><g
     id="g823"
     inkscape:groupmode="layer"
     inkscape:label="SCPH-70011CB_70012CB"
     transform="matrix(1.3333333,0,0,-1.3333333,227.19901,613.40507)"><g
       id="g4835"
       transform="matrix(22.150142,0,0,22.150142,-10143.545,-1780.5881)"
       style="fill:#000000"><path
         inkscape:connector-curvature="0"
         id="path1021"
         style="fill:#000000;fill-opacity:1;fill-rule:nonzero;stroke:none"
         d="m 456.908,91.327 0.41,-0.176 v 3.248 c 0,0 -0.498,-0.22 -0.688,-0.395 -0.322,-0.278 -0.468,-0.629 -0.482,-1.17 0.014,-0.644 0.102,-0.966 0.76,-1.507" /><g
         id="g4818"
         style="fill:#000000"><path
           d="m 450.252,84.188 h 27.838 v 16.969 h -27.838 z m 0.366,3.511 h 27.063 v -3.204 h -27.063 z m 1.287,5.851 c 0.234,0.688 0.819,1.258 1.434,1.566 0.175,0.058 0.278,0.131 0.424,0.19 0.922,0.366 1.624,0.366 2.487,0.336 0.395,-0.029 0.761,-0.161 1.068,-0.219 v 4.052 l 0.029,0.088 h 4.315 v -3.95 h 1.317 v 1.185 l 4.389,2.004 v -3.189 l 1.155,0.029 v -1.053 h -1.155 v -3.438 c 0.263,-0.307 0.599,-0.307 0.98,-0.204 0.951,0.292 1.96,-0.498 2.779,0.058 0.088,0.132 0.307,0.395 0.19,0.556 -0.585,0.805 -1.653,1.126 -2.121,2.019 -0.117,0.453 0,0.892 0.351,1.17 0.176,0.161 0.351,0.219 0.512,0.366 1.8,0.79 3.862,0.746 5.749,0.278 0.059,-0.059 0.22,-0.059 0.293,-0.088 0.088,-0.059 -0.073,-0.307 -0.073,-0.424 -0.483,-0.132 -1.258,0.175 -1.58,-0.381 -0.044,-0.234 0.088,-0.468 0.263,-0.599 0.702,-0.717 1.814,-1.054 1.741,-2.195 -0.044,-0.483 -0.585,-0.819 -0.878,-1.068 -0.395,-0.219 -0.746,-0.307 -1.126,-0.468 -0.775,-0.146 -1.478,-0.234 -2.209,-0.278 -0.922,0 -1.814,0.103 -2.648,0.322 -0.673,0.278 -1.273,-0.044 -1.872,-0.102 -1.331,-0.147 -2.619,-0.498 -4.008,0.278 -0.293,0.161 -0.659,0.453 -0.79,0.833 v 3.336 h -1.259 v -4.667 h -4.344 v 0.351 c -0.922,-0.409 -2.472,-0.585 -3.613,-0.073 -0.22,0.088 -0.249,0.132 -0.439,0.19 -0.264,0.191 -0.483,0.366 -0.732,0.556 -0.087,0.088 -0.146,0.234 -0.248,0.278 -0.454,0.615 -0.659,1.522 -0.381,2.355"
           style="fill:#000000;fill-opacity:1;fill-rule:nonzero;stroke:none"
           id="path1023"
           inkscape:connector-curvature="0" /><path
           d="m 478.705,100.192 v 0.717 h 0.322 c 0.073,0 0.117,0 0.146,-0.015 0.029,-0.015 0.058,-0.044 0.088,-0.073 0.014,-0.029 0.029,-0.073 0.029,-0.103 0,-0.058 -0.015,-0.102 -0.059,-0.131 -0.029,-0.044 -0.073,-0.059 -0.146,-0.073 0.029,-0.015 0.044,-0.015 0.059,-0.03 0.029,-0.029 0.044,-0.058 0.073,-0.102 l 0.131,-0.19 h -0.117 l -0.102,0.146 c -0.029,0.044 -0.044,0.073 -0.073,0.102 -0.015,0.015 -0.029,0.03 -0.044,0.044 -0.015,0.015 -0.029,0.015 -0.044,0.015 -0.015,0.015 -0.029,0.015 -0.058,0.015 h -0.103 v -0.322 z m 0.102,0.395 h 0.205 c 0.044,0 0.073,0.014 0.102,0.014 0.03,0.015 0.044,0.03 0.059,0.044 0.015,0.03 0.015,0.044 0.015,0.073 0,0.03 -0.015,0.059 -0.044,0.074 -0.015,0.029 -0.059,0.043 -0.117,0.043 h -0.22 v -0.248"
           style="fill:#000000;fill-opacity:1;fill-rule:nonzero;stroke:none"
           id="path1025"
           inkscape:connector-curvature="0" /><path
           d="m 478.983,101.069 c 0.295,0 0.526,-0.231 0.526,-0.526 0,-0.287 -0.231,-0.512 -0.526,-0.512 -0.283,0 -0.512,0.23 -0.512,0.512 0,0.295 0.225,0.526 0.512,0.526 z m -0.6,-0.526 c 0,-0.331 0.269,-0.6 0.6,-0.6 0.344,0 0.614,0.264 0.614,0.6 0,0.344 -0.27,0.614 -0.614,0.614 -0.337,0 -0.6,-0.27 -0.6,-0.614"
           style="fill:#000000;fill-opacity:1;fill-rule:nonzero;stroke:none"
           id="path1027"
           inkscape:connector-curvature="0" /><path
           d="m 452.169,85.066 c 0.043,-0.015 0.087,-0.015 0.131,-0.015 0.044,-0.014 0.088,-0.014 0.117,-0.014 0.322,0 0.571,0.087 0.732,0.278 0.161,0.175 0.234,0.438 0.234,0.804 0,0.351 -0.073,0.615 -0.22,0.775 -0.146,0.161 -0.395,0.235 -0.731,0.235 -0.029,0 -0.073,0 -0.161,0 -0.029,0 -0.073,0 -0.088,0 0,-0.176 -0.014,-0.352 -0.014,-0.527 0,-0.19 0,-0.41 0,-0.629 0,-0.249 0,-0.439 0,-0.556 0,-0.132 0,-0.249 0,-0.351 z m -0.586,-0.234 c 0.015,0.117 0.03,0.234 0.03,0.366 0.014,0.131 0.014,0.321 0.014,0.555 v 0.527 c 0,0.278 0,0.483 -0.014,0.644 0,0.161 -0.015,0.292 -0.03,0.424 0.044,-0.015 0.103,-0.015 0.147,-0.015 0.044,0 0.087,0 0.146,0 0.073,0 0.19,0 0.366,0 0.161,0 0.292,0.015 0.38,0.015 0.234,0 0.439,-0.029 0.571,-0.059 0.146,-0.043 0.263,-0.102 0.38,-0.175 0.117,-0.102 0.219,-0.249 0.293,-0.41 0.073,-0.161 0.102,-0.351 0.102,-0.556 0,-0.439 -0.117,-0.76 -0.366,-0.98 -0.249,-0.219 -0.629,-0.336 -1.126,-0.336 -0.088,0 -0.205,0 -0.351,0.014 -0.132,0 -0.234,0 -0.278,0 -0.044,0 -0.117,0 -0.19,0 -0.03,-0.014 -0.059,-0.014 -0.074,-0.014"
           style="fill:#000000;fill-opacity:1;fill-rule:nonzero;stroke:none"
           id="path1029"
           inkscape:connector-curvature="0" /><path
           d="m 454.714,84.832 c 0.015,0.161 0.015,0.336 0.029,0.526 0,0.191 0,0.425 0,0.732 0,0.292 0,0.526 0,0.731 -0.014,0.191 -0.014,0.366 -0.029,0.527 0.044,-0.015 0.102,-0.015 0.146,-0.029 0.059,0 0.117,0 0.161,0 0.059,0 0.117,0 0.161,0 0.059,0.014 0.102,0.014 0.161,0.029 -0.015,-0.161 -0.029,-0.336 -0.029,-0.541 -0.015,-0.191 -0.015,-0.439 -0.015,-0.717 0,-0.322 0,-0.556 0.015,-0.746 0,-0.19 0.014,-0.351 0.029,-0.512 -0.059,0.014 -0.117,0.014 -0.176,0.014 -0.043,0 -0.087,0.015 -0.146,0.015 -0.044,0 -0.088,-0.015 -0.146,-0.015 -0.059,0 -0.103,0 -0.161,-0.014"
           style="fill:#000000;fill-opacity:1;fill-rule:nonzero;stroke:none"
           id="path1031"
           inkscape:connector-curvature="0" /><path
           d="m 458.459,84.963 c -0.205,-0.058 -0.395,-0.102 -0.585,-0.131 -0.176,-0.029 -0.351,-0.044 -0.512,-0.044 -0.41,0 -0.732,0.117 -0.966,0.351 -0.234,0.234 -0.351,0.541 -0.351,0.951 0,0.395 0.132,0.717 0.38,0.951 0.264,0.234 0.615,0.351 1.054,0.351 0.19,0 0.365,-0.029 0.512,-0.059 0.161,-0.044 0.307,-0.087 0.424,-0.175 -0.029,-0.073 -0.059,-0.146 -0.073,-0.22 -0.015,-0.073 -0.029,-0.146 -0.044,-0.204 h -0.015 c -0.087,0.146 -0.19,0.263 -0.322,0.336 -0.131,0.073 -0.277,0.102 -0.468,0.102 -0.278,0 -0.482,-0.087 -0.643,-0.278 -0.147,-0.19 -0.22,-0.453 -0.22,-0.804 0,-0.351 0.073,-0.615 0.22,-0.805 0.146,-0.19 0.365,-0.278 0.643,-0.278 0.088,0 0.161,0 0.22,0.015 0.073,0.015 0.146,0.044 0.205,0.073 0,0.059 0,0.103 0.014,0.161 0,0.059 0,0.117 0,0.176 0,0.102 0,0.19 -0.014,0.277 0,0.088 -0.015,0.176 -0.015,0.264 0.044,0 0.088,-0.015 0.146,-0.015 0.044,0 0.088,0 0.147,0 0.058,0 0.102,0 0.146,0 0.044,0 0.088,0.015 0.117,0.015 0,-0.088 0,-0.176 0,-0.264 -0.015,-0.102 -0.015,-0.204 -0.015,-0.307 0,-0.117 0,-0.204 0,-0.263 0,-0.073 0.015,-0.117 0.015,-0.176"
           style="fill:#000000;fill-opacity:1;fill-rule:nonzero;stroke:none"
           id="path1033"
           inkscape:connector-curvature="0" /><path
           d="m 459.205,84.832 c 0.015,0.161 0.029,0.336 0.029,0.526 0.015,0.191 0.015,0.425 0.015,0.732 0,0.292 0,0.526 -0.015,0.731 0,0.191 -0.014,0.366 -0.029,0.527 0.058,-0.015 0.117,-0.015 0.161,-0.029 0.058,0 0.117,0 0.161,0 0.058,0 0.102,0 0.161,0 0.058,0.014 0.102,0.014 0.161,0.029 -0.015,-0.161 -0.03,-0.336 -0.03,-0.541 -0.014,-0.191 -0.014,-0.439 -0.014,-0.717 0,-0.322 0,-0.556 0.014,-0.746 0,-0.19 0.015,-0.351 0.03,-0.512 -0.059,0.014 -0.117,0.014 -0.176,0.014 -0.044,0 -0.102,0.015 -0.146,0.015 -0.044,0 -0.103,-0.015 -0.147,-0.015 -0.058,0 -0.102,0 -0.175,-0.014"
           style="fill:#000000;fill-opacity:1;fill-rule:nonzero;stroke:none"
           id="path1035"
           inkscape:connector-curvature="0" /><path
           d="m 461.165,84.832 c 0.015,0.19 0.029,0.38 0.029,0.585 0.015,0.205 0.015,0.424 0.015,0.673 0,0.073 0,0.205 0,0.38 0,0.176 -0.015,0.381 -0.015,0.585 h -0.073 c -0.117,0 -0.219,0 -0.322,0 -0.102,-0.014 -0.204,-0.029 -0.292,-0.029 0,0 0,0.029 0,0.073 0,0.044 0.014,0.073 0.014,0.088 0,0.029 -0.014,0.059 -0.014,0.117 0,0.015 0,0.029 0,0.044 0.19,-0.015 0.366,-0.029 0.527,-0.029 0.16,0 0.307,0 0.438,0 0.147,0 0.293,0 0.439,0 0.161,0 0.337,0.014 0.542,0.029 -0.015,-0.029 -0.015,-0.059 -0.015,-0.073 0,-0.029 0,-0.059 0,-0.088 0,-0.029 0,-0.044 0,-0.073 0,-0.029 0,-0.059 0.015,-0.088 -0.103,0 -0.205,0.015 -0.308,0.029 -0.102,0 -0.205,0 -0.322,0 h -0.073 c 0,-0.087 0,-0.19 0,-0.292 -0.014,-0.117 -0.014,-0.278 -0.014,-0.483 0,-0.38 0.014,-0.673 0.014,-0.892 0,-0.205 0.015,-0.395 0.03,-0.556 -0.059,0.014 -0.118,0.014 -0.161,0.014 -0.059,0 -0.103,0.015 -0.147,0.015 -0.058,0 -0.102,-0.015 -0.146,-0.015 -0.058,0 -0.102,0 -0.161,-0.014"
           style="fill:#000000;fill-opacity:1;fill-rule:nonzero;stroke:none"
           id="path1037"
           inkscape:connector-curvature="0" /><path
           d="m 462.584,84.832 c 0.176,0.395 0.351,0.804 0.512,1.229 0.176,0.424 0.337,0.863 0.497,1.331 0.03,-0.015 0.059,-0.015 0.074,-0.015 0.029,0 0.058,0 0.073,0 0.029,0 0.044,0 0.073,0 0.015,0 0.044,0 0.058,0.015 0.147,-0.41 0.308,-0.819 0.483,-1.244 0.161,-0.439 0.351,-0.863 0.541,-1.316 -0.043,0.014 -0.102,0.014 -0.146,0.014 -0.058,0 -0.117,0 -0.175,0 -0.059,0 -0.103,0 -0.161,0 -0.044,0 -0.103,0 -0.147,-0.014 -0.029,0.102 -0.058,0.19 -0.102,0.292 -0.029,0.103 -0.073,0.264 -0.146,0.454 -0.044,0 -0.103,0 -0.161,0 -0.059,0 -0.146,0 -0.264,0 -0.117,0 -0.204,0 -0.263,0 -0.058,0 -0.117,0 -0.161,0 -0.073,-0.205 -0.131,-0.366 -0.161,-0.468 -0.044,-0.103 -0.073,-0.19 -0.102,-0.278 -0.029,0.014 -0.059,0.014 -0.088,0.014 -0.029,0 -0.044,0 -0.073,0 -0.029,0 -0.073,0 -0.146,-0.014 -0.015,0 -0.015,0 -0.015,0 z m 0.688,0.98 v 0 c 0.146,0 0.248,0 0.321,0 0.044,0 0.088,0 0.118,0 0.043,0 0.117,0 0.204,0 -0.044,0.146 -0.087,0.292 -0.146,0.439 -0.058,0.131 -0.102,0.278 -0.161,0.409 -0.073,-0.131 -0.132,-0.263 -0.175,-0.409 -0.059,-0.147 -0.118,-0.278 -0.161,-0.439"
           style="fill:#000000;fill-opacity:1;fill-rule:nonzero;stroke:none"
           id="path1039"
           inkscape:connector-curvature="0" /><path
           d="m 465.422,84.832 c 0.015,0.175 0.029,0.351 0.029,0.556 0.015,0.19 0.015,0.424 0.015,0.702 0,0.263 0,0.497 -0.015,0.702 0,0.205 -0.014,0.38 -0.029,0.556 0.058,-0.015 0.102,-0.015 0.161,-0.029 0.044,0 0.102,0 0.146,0 0.059,0 0.103,0 0.161,0 0.044,0.014 0.103,0.014 0.146,0.029 -0.014,-0.176 -0.029,-0.366 -0.029,-0.571 -0.014,-0.204 -0.014,-0.438 -0.014,-0.687 0,-0.263 0,-0.454 0.014,-0.6 0,-0.161 0,-0.278 0.015,-0.395 0.146,0 0.292,0.015 0.424,0.015 0.146,0.014 0.278,0.029 0.41,0.044 0,-0.03 0,-0.059 -0.015,-0.074 0,-0.029 0,-0.058 0,-0.087 0,-0.03 0,-0.044 0,-0.073 0.015,-0.03 0.015,-0.059 0.015,-0.088 -0.176,0.014 -0.322,0.014 -0.439,0.029 -0.117,0 -0.22,0 -0.322,0 -0.088,0 -0.176,0 -0.293,0 -0.102,-0.015 -0.219,-0.015 -0.38,-0.029"
           style="fill:#000000;fill-opacity:1;fill-rule:nonzero;stroke:none"
           id="path1041"
           inkscape:connector-curvature="0" /><path
           d="m 469.108,86.09 c 0,-0.351 0.074,-0.615 0.22,-0.805 0.132,-0.19 0.336,-0.292 0.585,-0.292 0.249,0 0.439,0.102 0.571,0.292 0.146,0.19 0.219,0.468 0.219,0.805 0,0.336 -0.073,0.614 -0.219,0.804 -0.132,0.191 -0.322,0.293 -0.571,0.293 -0.249,0 -0.439,-0.102 -0.585,-0.293 -0.146,-0.19 -0.22,-0.468 -0.22,-0.804 z m -0.585,-0.044 c 0,0.424 0.132,0.746 0.381,0.98 0.248,0.249 0.599,0.366 1.038,0.366 0.439,0 0.761,-0.117 0.995,-0.337 0.234,-0.234 0.351,-0.556 0.351,-0.965 0,-0.395 -0.117,-0.717 -0.366,-0.951 -0.263,-0.234 -0.599,-0.351 -1.009,-0.351 -0.453,0 -0.79,0.102 -1.024,0.322 -0.249,0.219 -0.366,0.541 -0.366,0.936"
           style="fill:#000000;fill-opacity:1;fill-rule:nonzero;stroke:none"
           id="path1043"
           inkscape:connector-curvature="0" /><path
           d="m 471.99,87.348 c 0.044,-0.015 0.103,-0.015 0.146,-0.015 0.059,0 0.118,0 0.176,0 0.059,0 0.103,0 0.161,0 0.044,0 0.088,0 0.132,0.015 -0.015,-0.205 -0.03,-0.41 -0.044,-0.614 0,-0.22 0,-0.469 0,-0.717 0,-0.22 0,-0.366 0.014,-0.454 0,-0.088 0.03,-0.175 0.059,-0.234 0.029,-0.102 0.102,-0.175 0.19,-0.234 0.102,-0.058 0.22,-0.088 0.351,-0.088 0.132,0 0.249,0.03 0.351,0.073 0.088,0.044 0.176,0.118 0.234,0.205 0.044,0.073 0.073,0.176 0.103,0.293 0.014,0.117 0.029,0.307 0.029,0.585 0,0.219 -0.015,0.424 -0.015,0.629 0,0.19 -0.014,0.38 -0.029,0.556 0.029,-0.015 0.059,-0.015 0.088,-0.015 0.029,0 0.058,0 0.088,0 0.044,0 0.073,0 0.102,0 0.029,0 0.059,0 0.088,0.015 -0.015,-0.176 -0.029,-0.322 -0.029,-0.454 0,-0.131 0,-0.248 0,-0.351 0,-0.058 0,-0.146 0,-0.263 0,-0.117 0,-0.219 0,-0.278 0,-0.234 -0.015,-0.424 -0.059,-0.556 -0.029,-0.131 -0.088,-0.248 -0.161,-0.336 -0.102,-0.103 -0.219,-0.19 -0.366,-0.249 -0.131,-0.044 -0.307,-0.073 -0.497,-0.073 -0.219,0 -0.41,0.029 -0.556,0.088 -0.161,0.058 -0.278,0.146 -0.351,0.263 -0.059,0.073 -0.102,0.176 -0.132,0.307 -0.014,0.132 -0.029,0.337 -0.029,0.629 v 0.322 c 0,0.219 0,0.41 -0.014,0.556 0,0.132 -0.015,0.263 -0.03,0.395"
           style="fill:#000000;fill-opacity:1;fill-rule:nonzero;stroke:none"
           id="path1045"
           inkscape:connector-curvature="0" /><path
           d="m 475.53,84.832 c 0.015,0.19 0.03,0.38 0.03,0.585 0.014,0.205 0.014,0.424 0.014,0.673 0,0.073 0,0.205 0,0.38 -0.014,0.176 -0.014,0.381 -0.014,0.585 h -0.073 c -0.117,0 -0.22,0 -0.322,0 -0.103,-0.014 -0.205,-0.029 -0.293,-0.029 0,0 0,0.029 0,0.073 0,0.044 0,0.073 0,0.088 0,0.029 0,0.059 0,0.117 0,0.015 0,0.029 0,0.044 0.19,-0.015 0.366,-0.029 0.527,-0.029 0.146,0 0.292,0 0.439,0 0.131,0 0.292,0 0.438,0 0.161,0 0.337,0.014 0.527,0.029 0,-0.029 0,-0.059 0,-0.073 0,-0.029 0,-0.059 0,-0.088 0,-0.029 0,-0.044 0,-0.073 0,-0.029 0,-0.059 0,-0.088 -0.088,0 -0.19,0.015 -0.292,0.029 -0.103,0 -0.205,0 -0.322,0 h -0.074 c 0,-0.087 -0.014,-0.19 -0.014,-0.292 0,-0.117 0,-0.278 0,-0.483 0,-0.38 0,-0.673 0.014,-0.892 0,-0.205 0.015,-0.395 0.03,-0.556 -0.059,0.014 -0.117,0.014 -0.176,0.014 -0.044,0 -0.088,0.015 -0.146,0.015 -0.044,0 -0.088,-0.015 -0.132,-0.015 -0.058,0 -0.102,0 -0.161,-0.014"
           style="fill:#000000;fill-opacity:1;fill-rule:nonzero;stroke:none"
           id="path1047"
           inkscape:connector-curvature="0" /></g></g></g></svg>
